<svg viewBox="0 -87 512 511" xmlns="http://www.w3.org/2000/svg"><path d="m10 192.6875h246v135.191406h-246zm0 0" fill="#5396a8"/><path d="m256 192.6875h246v135.191406h-246zm0 0" fill="#ff6a81"/><path d="m10 57.5h246v135.1875h-246zm0 0" fill="#fcd888"/><path d="m41 10.5h66v47h-66zm0 0" fill="#ffae55"/><path d="m159 10.5h66v47h-66zm0 0" fill="#ffae55"/><path d="m179.949219 98.71875c-.648438 0-1.308594-.0625-1.960938-.191406-.628906-.128906-1.257812-.328125-1.867187-.578125-.601563-.25-1.179688-.558594-1.722656-.921875-.546876-.359375-1.058594-.777344-1.527344-1.238282-.460938-.460937-.871094-.96875-1.242188-1.519531-.359375-.539062-.667968-1.121093-.917968-1.722656-.25-.609375-.441407-1.238281-.570313-1.878906s-.191406-1.300781-.191406-1.949219.0625-1.3125.191406-1.949219c.128906-.640625.320313-1.273437.570313-1.878906.25-.601563.558593-1.183594.917968-1.722656.371094-.550781.78125-1.058594 1.242188-1.519531.46875-.460938.980468-.878907 1.527344-1.242188.542968-.359375 1.121093-.667969 1.722656-.917969.609375-.25 1.238281-.441406 1.867187-.570312 1.292969-.261719 2.621094-.261719 3.910157 0 .640624.128906 1.273437.320312 1.871093.570312.609375.25 1.191407.558594 1.730469.917969.550781.363281 1.058594.78125 1.519531 1.242188.460938.460937.878907.96875 1.242188 1.519531.359375.539062.667969 1.121093.917969 1.722656.25.605469.441406 1.238281.570312 1.878906s.199219 1.300781.199219 1.949219-.070313 1.308594-.199219 1.949219-.320312 1.269531-.570312 1.878906c-.25.601563-.558594 1.183594-.917969 1.722656-.363281.550781-.78125 1.058594-1.242188 1.519531-1.859375 1.859376-4.441406 2.929688-7.070312 2.929688zm0 0"/><path d="m256 57.5h246v135.1875h-246zm0 0" fill="#70dbe0"/><path d="m287 10.5h66v47h-66zm0 0" fill="#5396a8"/><path d="m405 10.5h66v47h-66zm0 0" fill="#5396a8"/><path d="m402.949219 234.410156c-.648438 0-1.308594-.0625-1.960938-.191406-.628906-.128906-1.257812-.320312-1.867187-.570312-.601563-.25-1.179688-.558594-1.722656-.917969-.546876-.359375-1.058594-.78125-1.527344-1.242188-.460938-.457031-.871094-.96875-1.242188-1.519531-.359375-.539062-.667968-1.128906-.917968-1.730469-.25-.597656-.441407-1.226562-.570313-1.867187s-.191406-1.300782-.191406-1.960938c0-.648437.0625-1.300781.191406-1.949218.128906-.640626.320313-1.269532.570313-1.871094.25-.601563.558593-1.179688.917968-1.730469.371094-.539063.78125-1.046875 1.242188-1.507813.46875-.472656.980468-.882812 1.527344-1.25.542968-.359374 1.121093-.671874 1.722656-.921874.609375-.25 1.238281-.4375 1.867187-.570313 1.292969-.257813 2.621094-.257813 3.910157 0 .640624.132813 1.273437.320313 1.871093.570313.601563.25 1.191407.5625 1.730469.921874.550781.367188 1.058594.777344 1.519531 1.25.460938.460938.878907.96875 1.242188 1.507813.359375.550781.667969 1.132813.917969 1.730469.25.601562.441406 1.230468.570312 1.871094.128906.648437.199219 1.300781.199219 1.949218 0 .660156-.070313 1.320313-.199219 1.960938s-.320312 1.269531-.570312 1.867187c-.25.601563-.558594 1.191407-.917969 1.730469-.363281.550781-.78125 1.0625-1.242188 1.519531-.460937.460938-.96875.882813-1.519531 1.242188-.539062.359375-1.128906.667969-1.730469.917969-.597656.25-1.230469.441406-1.871093.570312-.636719.128906-1.296876.191406-1.949219.191406zm0 0"/><path d="m502 47.5h-21v-37c0-5.523438-4.476562-10-10-10h-66c-5.523438 0-10 4.476562-10 10v37h-32v-37c0-5.523438-4.476562-10-10-10h-66c-5.523438 0-10 4.476562-10 10v37h-42v-37c0-5.523438-4.476562-10-10-10h-66c-5.523438 0-10 4.476562-10 10v37h-32v-37c0-5.523438-4.476562-10-10-10h-66c-5.523438 0-10 4.476562-10 10v37h-21c-5.523438 0-10 4.476562-10 10v270.378906c0 5.523438 4.476562 10 10 10h492c5.523438 0 10-4.476562 10-10v-270.378906c0-5.523438-4.476562-10-10-10zm-10 135.1875h-226v-115.1875h226zm-472 20h226v11.726562h-226zm395-182.1875h46v27h-46zm-118 0h46v27h-46zm-128 0h46v27h-46zm-118 0h46v27h-46zm195 47v115.1875h-226v-83.96875h120.527344c5.523437 0 10-4.476562 10-10s-4.476563-10-10-10h-120.527344v-11.21875zm-226 166.914062h226v83.464844h-226zm472 83.464844h-226v-83.464844h97.527344c5.523437 0 10-4.476562 10-10 0-5.523437-4.476563-10-10-10h-97.527344v-11.726562h226zm0 0"/></svg>